<mxfile host="app.diagrams.net" agent="Mozilla/5.0 (Windows NT 10.0; Win64; x64) AppleWebKit/537.36 (KHTML, like Gecko) Chrome/132.0.0.0 Safari/537.36" version="26.0.10">
  <diagram name="Page-1" id="x-O0jOpImY9W7Zc4bfrG">
    <mxGraphModel dx="952" dy="1019" grid="1" gridSize="10" guides="1" tooltips="1" connect="1" arrows="1" fold="1" page="1" pageScale="1" pageWidth="850" pageHeight="1100" math="0" shadow="0">
      <root>
        <mxCell id="0" />
        <mxCell id="1" parent="0" />
        <mxCell id="Qi1iRCyiyDdwmybTI21t-2" value="" style="verticalLabelPosition=bottom;verticalAlign=top;html=1;shape=mxgraph.basic.rect;fillColor2=none;strokeWidth=1;size=20;indent=5;" vertex="1" parent="1">
          <mxGeometry x="400" y="200" width="900" height="580" as="geometry" />
        </mxCell>
        <mxCell id="Qi1iRCyiyDdwmybTI21t-3" value="" style="verticalLabelPosition=bottom;verticalAlign=top;html=1;shape=mxgraph.basic.rect;fillColor2=none;strokeWidth=1;size=20;indent=5;" vertex="1" parent="1">
          <mxGeometry x="635" y="300" width="430" height="340" as="geometry" />
        </mxCell>
        <mxCell id="Qi1iRCyiyDdwmybTI21t-4" value="" style="ellipse;whiteSpace=wrap;html=1;aspect=fixed;" vertex="1" parent="1">
          <mxGeometry x="1140" y="300" width="80" height="80" as="geometry" />
        </mxCell>
        <mxCell id="Qi1iRCyiyDdwmybTI21t-5" value="" style="ellipse;whiteSpace=wrap;html=1;aspect=fixed;" vertex="1" parent="1">
          <mxGeometry x="1140" y="430" width="80" height="80" as="geometry" />
        </mxCell>
        <mxCell id="Qi1iRCyiyDdwmybTI21t-6" value="" style="ellipse;whiteSpace=wrap;html=1;aspect=fixed;" vertex="1" parent="1">
          <mxGeometry x="1140" y="560" width="80" height="80" as="geometry" />
        </mxCell>
        <mxCell id="Qi1iRCyiyDdwmybTI21t-7" value="" style="rounded=0;whiteSpace=wrap;html=1;" vertex="1" parent="1">
          <mxGeometry x="450" y="300" width="120" height="340" as="geometry" />
        </mxCell>
        <mxCell id="Qi1iRCyiyDdwmybTI21t-8" value="" style="rounded=0;whiteSpace=wrap;html=1;" vertex="1" parent="1">
          <mxGeometry x="450" y="320" width="120" height="60" as="geometry" />
        </mxCell>
        <mxCell id="Qi1iRCyiyDdwmybTI21t-9" value="" style="rounded=0;whiteSpace=wrap;html=1;" vertex="1" parent="1">
          <mxGeometry x="450" y="380" width="120" height="60" as="geometry" />
        </mxCell>
        <mxCell id="Qi1iRCyiyDdwmybTI21t-10" value="" style="rounded=0;whiteSpace=wrap;html=1;" vertex="1" parent="1">
          <mxGeometry x="450" y="440" width="120" height="60" as="geometry" />
        </mxCell>
        <mxCell id="Qi1iRCyiyDdwmybTI21t-11" value="" style="rounded=0;whiteSpace=wrap;html=1;" vertex="1" parent="1">
          <mxGeometry x="450" y="500" width="120" height="60" as="geometry" />
        </mxCell>
        <mxCell id="Qi1iRCyiyDdwmybTI21t-12" value="" style="rounded=0;whiteSpace=wrap;html=1;" vertex="1" parent="1">
          <mxGeometry x="635" y="660" width="120" height="60" as="geometry" />
        </mxCell>
        <mxCell id="Qi1iRCyiyDdwmybTI21t-13" value="" style="rounded=0;whiteSpace=wrap;html=1;" vertex="1" parent="1">
          <mxGeometry x="790" y="660" width="120" height="60" as="geometry" />
        </mxCell>
        <mxCell id="Qi1iRCyiyDdwmybTI21t-14" value="" style="rounded=0;whiteSpace=wrap;html=1;" vertex="1" parent="1">
          <mxGeometry x="945" y="660" width="120" height="60" as="geometry" />
        </mxCell>
        <mxCell id="Qi1iRCyiyDdwmybTI21t-15" value="" style="verticalLabelPosition=bottom;verticalAlign=top;html=1;shape=mxgraph.basic.rect;fillColor2=none;strokeWidth=1;size=20;indent=5;" vertex="1" parent="1">
          <mxGeometry x="400" y="850" width="900" height="580" as="geometry" />
        </mxCell>
        <mxCell id="Qi1iRCyiyDdwmybTI21t-16" value="" style="rounded=0;whiteSpace=wrap;html=1;" vertex="1" parent="1">
          <mxGeometry x="400" y="200" width="120" height="30" as="geometry" />
        </mxCell>
        <mxCell id="Qi1iRCyiyDdwmybTI21t-17" value="" style="rounded=0;whiteSpace=wrap;html=1;" vertex="1" parent="1">
          <mxGeometry x="520" y="200" width="120" height="30" as="geometry" />
        </mxCell>
        <mxCell id="Qi1iRCyiyDdwmybTI21t-18" value="" style="rounded=0;whiteSpace=wrap;html=1;" vertex="1" parent="1">
          <mxGeometry x="640" y="200" width="120" height="30" as="geometry" />
        </mxCell>
        <mxCell id="Qi1iRCyiyDdwmybTI21t-21" value="" style="verticalLabelPosition=bottom;verticalAlign=top;html=1;shape=mxgraph.basic.rect;fillColor2=none;strokeWidth=1;size=20;indent=5;" vertex="1" parent="1">
          <mxGeometry x="450" y="930" width="120" height="420" as="geometry" />
        </mxCell>
        <mxCell id="Qi1iRCyiyDdwmybTI21t-22" value="" style="verticalLabelPosition=bottom;verticalAlign=top;html=1;shape=mxgraph.basic.rect;fillColor2=none;strokeWidth=1;size=20;indent=5;" vertex="1" parent="1">
          <mxGeometry x="600" y="930" width="600" height="420" as="geometry" />
        </mxCell>
        <mxCell id="Qi1iRCyiyDdwmybTI21t-23" value="" style="verticalLabelPosition=bottom;verticalAlign=top;html=1;shape=mxgraph.basic.rect;fillColor2=none;strokeWidth=1;size=20;indent=5;" vertex="1" parent="1">
          <mxGeometry x="600" y="1350" width="100" height="30" as="geometry" />
        </mxCell>
        <mxCell id="Qi1iRCyiyDdwmybTI21t-24" value="" style="verticalLabelPosition=bottom;verticalAlign=top;html=1;shape=mxgraph.basic.rect;fillColor2=none;strokeWidth=1;size=20;indent=5;" vertex="1" parent="1">
          <mxGeometry x="700" y="1350" width="110" height="30" as="geometry" />
        </mxCell>
        <mxCell id="Qi1iRCyiyDdwmybTI21t-25" value="" style="verticalLabelPosition=bottom;verticalAlign=top;html=1;shape=mxgraph.basic.rect;fillColor2=none;strokeWidth=1;size=20;indent=5;" vertex="1" parent="1">
          <mxGeometry x="920" y="1355" width="50" height="20" as="geometry" />
        </mxCell>
        <mxCell id="Qi1iRCyiyDdwmybTI21t-26" value="" style="verticalLabelPosition=bottom;verticalAlign=top;html=1;shape=mxgraph.basic.rect;fillColor2=none;strokeWidth=1;size=20;indent=5;" vertex="1" parent="1">
          <mxGeometry x="810" y="1350" width="100" height="30" as="geometry" />
        </mxCell>
        <mxCell id="Qi1iRCyiyDdwmybTI21t-28" value="" style="verticalLabelPosition=bottom;verticalAlign=top;html=1;shape=mxgraph.basic.rect;fillColor2=none;strokeWidth=1;size=20;indent=5;" vertex="1" parent="1">
          <mxGeometry x="1065" y="1390" width="80" height="20" as="geometry" />
        </mxCell>
        <mxCell id="Qi1iRCyiyDdwmybTI21t-29" value="" style="verticalLabelPosition=bottom;verticalAlign=top;html=1;shape=mxgraph.basic.rect;fillColor2=none;strokeWidth=1;size=20;indent=5;" vertex="1" parent="1">
          <mxGeometry x="1145" y="1390" width="80" height="20" as="geometry" />
        </mxCell>
      </root>
    </mxGraphModel>
  </diagram>
</mxfile>
